<?xml version="1.0" encoding="utf-8"?>
<!-- Generator: Adobe Illustrator 23.0.4, SVG Export Plug-In . SVG Version: 6.00 Build 0)  -->
<svg version="1.1" id="Layer_1" xmlns="http://www.w3.org/2000/svg" xmlns:xlink="http://www.w3.org/1999/xlink" x="0px" y="0px"
	 viewBox="0 0 256 256" enable-background="new 0 0 256 256" xml:space="preserve">
<g>
	<polygon fill="#283026" points="204.4,207.1 208.4,200.2 212.4,208 	"/>
	<polygon fill="#283026" points="159.6,125.8 167.1,128.5 160.2,133.9 	"/>
	<polygon fill="#283026" points="191.4,204.7 198.3,197.9 199.5,205.6 	"/>
	<polygon fill="#283026" points="165.2,155.6 173.1,161.1 165.8,163.7 	"/>
	<polygon fill="#283026" points="172.6,187.3 182.2,186.5 178.1,193.2 	"/>
	<polygon fill="#283026" points="181.3,197.9 188.6,195.5 186.5,201.6 	"/>
	<polygon fill="#283026" points="161,141.2 168.5,142.9 163.5,147 	"/>
	<polygon fill="#283026" points="168.9,174.5 176.5,175.7 171.9,180.2 	"/>
	<polygon fill="#283026" points="156.8,111.5 164.4,112.7 159.8,117.2 	"/>
	<path fill="#61755D" d="M131.2,204.4c12.9-2.4-1.6-101-44.4-99.4c-39.6,35.6-23.4,97-23.4,97S118.3,206.8,131.2,204.4z"/>
	<path fill="#42513F" d="M191.9,203.5c-32.3-11.3-33.1-109-33.1-126c0-26.7-17.8-48.5-34.7-39.6C111.7,44.4,72.7,65,52.4,75.7
		c-3,1.6-6.4-0.1-8.5,0.9c-3,1.6-4,2.4-4,5.7c0,3.2,4,10.5,12.9,16.2s16.2,9.7,34,6.5c42.8-1.6,57.3,97,44.4,99.4
		c-7.6,1.4-49.7-1.2-63.8-2.1l-4.9-8.4l-1.6,4.8l-4-4.8l-1.6,4.8l-4-4.8v21.8c0,0-0.8,4.4,4.4,4.4s95.7,0,95.7,0s42.8,0.4,59-7.7
		C226.6,204.4,203.2,207.5,191.9,203.5z"/>
	<path fill="#283026" d="M66,68.6c0,0,7-2.2,12.7,5c-4-9.7-8.3-7.4-8.3-7.4L66,68.6z"/>
	<path fill="#283026" d="M76.5,63c0,0,7-2.2,12.7,5c-4-9.7-8.3-7.4-8.3-7.4L76.5,63z"/>
	<path fill="none" stroke="#000000" stroke-width="2" stroke-linecap="round" stroke-linejoin="round" stroke-miterlimit="10" d="
		M120.3,54.5c0,0,7.3-2.4,8.9,4.8"/>
	<polygon fill="#42513F" points="133.4,119.8 97.6,138.9 104.3,139 101.4,143 107,142.7 105.6,146.6 136.9,135.7 	"/>
</g>
</svg>
